<?xml version="1.0" encoding="UTF-8"?>
<svg id="Capa_1" xmlns="http://www.w3.org/2000/svg" version="1.1" viewBox="0 0 2000 2000">
  <!-- Generator: Adobe Illustrator 29.0.0, SVG Export Plug-In . SVG Version: 2.1.0 Build 186)  -->
  <defs>
    <style>
      .st0 {
        fill: #1ad61a;
      }

      .st1 {
        fill: #014abb;
      }
    </style>
  </defs>
  <path class="st1" d="M1373.67,1253.23l67.09,164.1c-231.66,262.98-664.33,263.37-897.74-.43-251.09-283.78-186.22-788.72,158.72-965.23,276.79-141.63,667.68-53.52,797.69,236.27,6.87,15.17,12.95,30.93,18.29,47.2-46.22,2.22-235.17,105.4-261.54,98.73-3.78-.98-14.98-17.75-30.97-40.02-26.76-37.37-67.01-90.18-108.48-109.84-324.07-153.65-549.02,281.4-354.81,533.93,75.71,98.45,194.41,132.12,301.56,108.4,26.76-5.93,76.08-27.21,77.31-28.44l232.87-44.66Z"/>
  <polygon class="st0" points="1386.66 1230.83 1004.24 1299.88 1459.03 1075.13 1533.36 1601.15 1386.66 1230.83"/>
</svg>